<mxfile host="app.diagrams.net" modified="2023-06-07T12:53:12.732Z" agent="Mozilla/5.0 (Macintosh; Intel Mac OS X 10_15_7) AppleWebKit/537.36 (KHTML, like Gecko) Chrome/114.0.0.0 Safari/537.36" version="21.3.7" etag="UsbJNXXN3mUwIJNYcYZC" type="github">
  <diagram name="Pahina-1" id="4x1dMcaeNdjEkdAX17V4">
    <mxGraphModel>
      <root>
        <mxCell id="0" />
        <mxCell id="1" parent="0" />
      </root>
    </mxGraphModel>
  </diagram>
</mxfile>
